<svg width="33" height="33" viewBox="0 0 33 33" fill="none" xmlns="http://www.w3.org/2000/svg">
<path d="M28.5613 17.5612L19.5613 26.5612C19.2795 26.843 18.8973 27.0013 18.4988 27.0013C18.1002 27.0013 17.718 26.843 17.4363 26.5612C17.1545 26.2794 16.9961 25.8972 16.9961 25.4987C16.9961 25.1002 17.1545 24.718 17.4363 24.4362L23.875 18H5.5C5.10218 18 4.72064 17.8419 4.43934 17.5606C4.15804 17.2793 4 16.8978 4 16.5C4 16.1022 4.15804 15.7206 4.43934 15.4393C4.72064 15.158 5.10218 15 5.5 15H23.875L17.4387 8.55998C17.157 8.27818 16.9986 7.89599 16.9986 7.49747C16.9986 7.09896 17.157 6.71677 17.4387 6.43497C17.7205 6.15318 18.1027 5.99487 18.5012 5.99487C18.8998 5.99487 19.282 6.15318 19.5637 6.43497L28.5637 15.435C28.7036 15.5745 28.8145 15.7403 28.8901 15.9228C28.9657 16.1054 29.0045 16.301 29.0043 16.4986C29.0041 16.6962 28.9648 16.8918 28.8888 17.0741C28.8128 17.2565 28.7014 17.422 28.5613 17.5612Z" fill="#FACC15"/>
</svg>