<svg width="32" height="33" viewBox="0 0 32 33" fill="none" xmlns="http://www.w3.org/2000/svg">
<path d="M28.5 19.5V26.5C28.5 27.163 28.2366 27.7989 27.7678 28.2678C27.2989 28.7366 26.663 29 26 29H6C5.33696 29 4.70107 28.7366 4.23223 28.2678C3.76339 27.7989 3.5 27.163 3.5 26.5V19.5C3.5 19.1022 3.65804 18.7206 3.93934 18.4393C4.22064 18.158 4.60218 18 5 18C5.39782 18 5.77936 18.158 6.06066 18.4393C6.34196 18.7206 6.5 19.1022 6.5 19.5V26H25.5V19.5C25.5 19.1022 25.658 18.7206 25.9393 18.4393C26.2206 18.158 26.6022 18 27 18C27.3978 18 27.7794 18.158 28.0607 18.4393C28.342 18.7206 28.5 19.1022 28.5 19.5ZM14.9388 20.5613C15.0781 20.7011 15.2437 20.812 15.426 20.8878C15.6084 20.9635 15.8038 21.0024 16.0012 21.0024C16.1987 21.0024 16.3941 20.9635 16.5765 20.8878C16.7588 20.812 16.9244 20.7011 17.0637 20.5613L22.0637 15.5612C22.3455 15.2795 22.5039 14.8973 22.5039 14.4987C22.5039 14.1002 22.3455 13.718 22.0637 13.4362C21.782 13.1545 21.3998 12.9961 21.0012 12.9961C20.6027 12.9961 20.2205 13.1545 19.9387 13.4362L17.5 15.875V5.5C17.5 5.10218 17.342 4.72064 17.0607 4.43934C16.7794 4.15804 16.3978 4 16 4C15.6022 4 15.2206 4.15804 14.9393 4.43934C14.658 4.72064 14.5 5.10218 14.5 5.5V15.875L12.0612 13.4388C11.7795 13.157 11.3973 12.9986 10.9987 12.9986C10.6002 12.9986 10.218 13.157 9.93625 13.4388C9.65446 13.7205 9.49615 14.1027 9.49615 14.5013C9.49615 14.8998 9.65446 15.282 9.93625 15.5638L14.9388 20.5613Z" fill="#FBBF24"/>
</svg>